<?xml version="1.0" encoding="UTF-8"?>
<!-- Generator: visioncortex VTracer 0.6.3 -->
<svg version="1.1" xmlns="http://www.w3.org/2000/svg" width="1280" height="1280">
<path d="M0 0 C0.8 -0 1.6 -0.01 2.43 -0.01 C5.1 -0.02 7.77 -0.02 10.44 -0.02 C12.31 -0.03 14.18 -0.03 16.05 -0.03 C19.99 -0.04 23.93 -0.04 27.87 -0.04 C31.87 -0.04 35.87 -0.05 39.88 -0.06 C82.49 -0.21 82.49 -0.21 101.24 2.15 C102 2.23 102.76 2.31 103.55 2.4 C109.13 3.03 109.13 3.03 110.24 4.15 C112.1 4.42 113.96 4.64 115.82 4.83 C116.96 4.95 118.1 5.08 119.28 5.2 C121.69 5.45 124.11 5.7 126.52 5.95 C127.67 6.08 128.82 6.2 130.01 6.33 C131.06 6.44 132.11 6.55 133.19 6.66 C136.38 7.17 139.2 8.09 142.24 9.15 C143.68 9.45 145.13 9.71 146.59 9.93 C147.36 10.05 148.13 10.17 148.93 10.29 C150.52 10.53 152.11 10.76 153.7 11 C157.85 11.65 161.35 12.55 165.24 14.15 C168 14.79 170.77 15.28 173.56 15.77 C174.3 15.9 175.04 16.04 175.8 16.18 C177.61 16.5 179.43 16.83 181.24 17.15 C181.24 17.81 181.24 18.47 181.24 19.15 C181.85 19.18 182.46 19.22 183.08 19.26 C191.66 19.93 199.26 22.33 207.26 25.4 C214.45 28.11 221.81 30.19 229.24 32.15 C229.24 32.81 229.24 33.47 229.24 34.15 C233.53 35.14 237.82 36.13 242.24 37.15 C242.24 37.81 242.24 38.47 242.24 39.15 C243.11 39.27 243.98 39.39 244.87 39.52 C248.14 40.13 251.12 41.03 254.24 42.15 C254.24 42.81 254.24 43.47 254.24 44.15 C258.2 45.14 262.16 46.13 266.24 47.15 C266.24 47.81 266.24 48.47 266.24 49.15 C267.73 48.65 267.73 48.65 269.24 48.15 C269.24 48.81 269.24 49.47 269.24 50.15 C270.23 50.15 271.22 50.15 272.24 50.15 C272.24 50.81 272.24 51.47 272.24 52.15 C273.56 52.15 274.88 52.15 276.24 52.15 C276.24 52.81 276.24 53.47 276.24 54.15 C277.32 54.25 278.39 54.35 279.49 54.46 C283.28 55.15 284.37 55.83 287.24 58.15 C289.24 58.82 291.24 59.49 293.24 60.15 C295.24 62.15 295.24 62.15 296.24 64.15 C297.56 64.54 298.9 64.85 300.24 65.15 C302.25 65.8 304.25 66.47 306.24 67.15 C306.24 67.81 306.24 68.47 306.24 69.15 C308.22 69.48 310.2 69.81 312.24 70.15 C312.24 70.81 312.24 71.47 312.24 72.15 C313.13 72.41 314.02 72.68 314.93 72.96 C318.03 74.07 320.55 75.25 323.24 77.15 C323.24 77.81 323.24 78.47 323.24 79.15 C324.11 79.39 324.98 79.64 325.87 79.9 C329.45 81.22 332.12 82.9 335.24 85.08 C339.14 87.8 343 90.03 347.24 92.15 C348.6 93.46 349.93 94.79 351.24 96.15 C353.38 97.38 353.38 97.38 355.24 98.15 C355.24 98.81 355.24 99.47 355.24 100.15 C356.07 100.37 356.89 100.6 357.74 100.83 C364.45 103.35 369.26 107.03 374.24 112.15 C375.57 112.83 376.9 113.5 378.24 114.15 C379.6 115.46 380.93 116.79 382.24 118.15 C385.99 121.5 385.99 121.5 390.24 124.15 C390.24 124.81 390.24 125.47 390.24 126.15 C391.23 126.15 392.22 126.15 393.24 126.15 C394.96 127.77 396.62 129.44 398.24 131.15 C399.68 132.36 401.12 133.58 402.58 134.77 C407.9 139.17 412.96 143.74 417.7 148.76 C419.31 150.39 419.31 150.39 422.24 151.15 C422.24 152.14 422.24 153.13 422.24 154.15 C423.23 154.15 424.22 154.15 425.24 154.15 C426.25 155.81 427.25 157.48 428.24 159.15 C428.88 159.45 429.51 159.75 430.16 160.06 C432.68 161.37 433.61 162.74 435.18 165.08 C437.54 168.39 439.58 170.26 443.24 172.15 C443.57 172.81 443.9 173.47 444.24 174.15 C444.9 174.81 445.56 175.47 446.24 176.15 C447.19 177.27 448.12 178.39 449.06 179.52 C450.88 181.67 452.53 183.37 454.74 185.15 C459.65 189.07 463.03 193.79 466.24 199.15 C469.7 203.78 469.7 203.78 474.24 207.15 C475.58 209.15 476.91 211.15 478.24 213.15 C477.91 213.81 477.58 214.47 477.24 215.15 C478.08 215.49 478.08 215.49 478.93 215.83 C484.53 219.01 487.3 223.66 490.24 229.15 C491.88 232.13 493.32 234.22 495.74 236.65 C498.82 239.72 500.71 242.6 502.12 246.71 C503.12 249.35 503.12 249.35 505.74 251.15 C508.54 253.38 509.15 254.8 510.24 258.15 C512.16 262.52 514.93 265.98 518.49 269.15 C520.24 271.15 520.24 271.15 520.18 273.65 C520.2 274.47 520.22 275.3 520.24 276.15 C521.39 277.01 521.39 277.01 522.56 277.9 C525.86 280.66 526.44 282.88 527.57 286.93 C529.06 291.82 531.63 294.81 535.1 298.46 C535.48 299.02 535.85 299.57 536.24 300.15 C535.91 301.14 535.58 302.13 535.24 303.15 C536.23 303.15 537.22 303.15 538.24 303.15 C538.75 304.41 539.25 305.69 539.74 306.96 C540.02 307.67 540.3 308.37 540.59 309.1 C541.24 311.15 541.24 311.15 541.24 314.15 C541.9 313.82 542.56 313.49 543.24 313.15 C543.43 314.72 543.43 314.72 543.62 316.33 C544.49 322 544.49 322 547.74 326.52 C550.03 328.99 550.36 331.94 551.24 335.15 C552.23 336.82 553.22 338.49 554.24 340.15 C554.95 342.13 555.63 344.13 556.24 346.15 C556.9 346.15 557.56 346.15 558.24 346.15 C558.37 347.05 558.49 347.96 558.62 348.9 C559.18 351.81 559.84 353.59 561.24 356.15 C562.36 358.81 563.35 361.46 564.24 364.21 C565.33 367.39 566.68 370.18 568.37 373.08 C569.43 375.58 569.24 377.45 569.24 380.15 C569.85 382.16 570.51 384.17 571.24 386.15 C571.9 386.15 572.56 386.15 573.24 386.15 C573.29 386.73 573.34 387.31 573.39 387.9 C573.84 392.58 574.54 396.72 576.24 401.15 C576.9 401.15 577.56 401.15 578.24 401.15 C578.57 403.46 578.9 405.77 579.24 408.15 C579.57 408.15 579.9 408.15 580.24 408.15 C580.22 409.09 580.2 410.04 580.18 411.02 C580.02 414.05 580.02 414.05 581.24 416.15 C581.2 417.09 581.16 418.04 581.12 419.02 C581.28 422.94 582.56 424.46 585.24 427.15 C585.94 431.26 586.26 435.35 586.18 439.52 C586.01 442.38 586.01 442.38 588.24 445.15 C588.62 447.49 588.62 447.49 588.81 450.08 C589.06 453.61 589.06 453.61 589.74 457.07 C590.41 459.83 590.59 462.56 590.81 465.4 C590.93 467.01 590.93 467.01 591.06 468.66 C591.15 469.89 591.15 469.89 591.24 471.15 C591.9 471.15 592.56 471.15 593.24 471.15 C593.29 472.11 593.34 473.07 593.39 474.07 C593.47 475.33 593.54 476.59 593.62 477.9 C593.69 479.15 593.76 480.4 593.83 481.69 C594.01 485 594.01 485 595.28 487.06 C596.86 490.47 596.37 494.01 596.24 497.71 C595.88 503.72 595.88 503.72 598.24 509.15 C598.5 511.15 598.5 511.15 598.5 513.48 C598.5 514.37 598.51 515.25 598.51 516.17 C598.51 517.14 598.51 518.11 598.5 519.11 C598.51 520.13 598.51 521.15 598.51 522.21 C598.52 525.6 598.52 528.99 598.51 532.38 C598.51 534.74 598.51 537.09 598.51 539.45 C598.52 544.39 598.51 549.33 598.5 554.28 C598.49 560.6 598.5 566.93 598.51 573.26 C598.52 578.13 598.52 583 598.51 587.87 C598.51 590.2 598.51 592.53 598.52 594.87 C598.52 598.13 598.51 601.4 598.5 604.67 C598.51 605.63 598.51 606.59 598.51 607.58 C598.48 612.86 597.89 617.14 596.24 622.15 C595.2 631.1 595.09 640.14 595.24 649.15 C594.91 649.15 594.58 649.15 594.24 649.15 C593.91 651.13 593.58 653.11 593.24 655.15 C592.58 655.15 591.92 655.15 591.24 655.15 C590.64 661.53 590.1 667.8 590.4 674.21 C590.16 677.21 588.72 679.37 587.18 681.9 C585.39 686.19 585.22 690.79 585.31 695.4 C585.24 698.3 584.69 699.67 583.24 702.15 C582.91 703.14 582.58 704.13 582.24 705.15 C581.59 706.49 580.93 707.82 580.24 709.15 C579.12 711.4 579.05 712.95 578.87 715.46 C578.47 719.49 577.33 721.67 575.24 725.15 C575.05 726.62 574.91 728.1 574.81 729.58 C574.46 734.1 572.76 736.37 570.24 740.15 C569.84 742.45 569.68 744.72 569.52 747.05 C569.14 749.91 567.82 751.75 566.24 754.15 C564.97 758.1 563.99 762.05 563.24 766.15 C562.25 766.48 561.26 766.81 560.24 767.15 C560.14 768.2 560.04 769.25 559.93 770.33 C559.25 774.12 558.18 775.92 556.24 779.15 C555.52 782.84 555.52 782.84 555.24 786.15 C554.62 786.21 554.01 786.27 553.37 786.33 C550.97 786.97 550.97 786.97 549.99 789.71 C549.75 790.51 549.5 791.32 549.24 792.15 C550.23 792.64 550.23 792.64 551.24 793.15 C550.25 795.46 549.26 797.77 548.24 800.15 C547.58 800.15 546.92 800.15 546.24 800.15 C546.24 800.81 546.24 801.47 546.24 802.15 C545.58 802.15 544.92 802.15 544.24 802.15 C544.57 803.14 544.9 804.13 545.24 805.15 C543.87 807.15 543.87 807.15 542.24 809.15 C541.91 810.14 541.58 811.13 541.24 812.15 C540.58 812.15 539.92 812.15 539.24 812.15 C539.57 813.14 539.9 814.13 540.24 815.15 C538.87 817.15 538.87 817.15 537.24 819.15 C536.91 820.14 536.58 821.13 536.24 822.15 C535.58 822.15 534.92 822.15 534.24 822.15 C534.57 823.47 534.9 824.79 535.24 826.15 C534.25 826.48 533.26 826.81 532.24 827.15 C529.95 830.58 530.06 832.13 530.24 836.15 C528.92 836.48 527.6 836.81 526.24 837.15 C525.84 838.85 525.84 838.85 525.43 840.58 C525.04 841.76 524.65 842.93 524.24 844.15 C523.25 844.48 522.26 844.81 521.24 845.15 C520.55 847.16 520.55 847.16 520.24 849.52 C519.69 853.04 519.12 854.92 516.24 857.15 C515.58 857.15 514.92 857.15 514.24 857.15 C514.14 858.26 514.04 859.37 513.93 860.52 C513.7 861.72 513.48 862.91 513.24 864.15 C512.25 864.81 511.26 865.47 510.24 866.15 C509.05 868.2 509.05 868.2 508.24 870.15 C507.58 870.15 506.92 870.15 506.24 870.15 C506.24 870.81 506.24 871.47 506.24 872.15 C505.58 872.15 504.92 872.15 504.24 872.15 C504.57 873.14 504.9 874.13 505.24 875.15 C504.46 875.5 503.68 875.85 502.87 876.21 C499.4 878.77 499.35 881.08 498.24 885.15 C496.12 886.58 496.12 886.58 494.24 887.15 C494.57 888.14 494.9 889.13 495.24 890.15 C494.58 890.15 493.92 890.15 493.24 890.15 C492.91 891.14 492.58 892.13 492.24 893.15 C491.25 892.82 490.26 892.49 489.24 892.15 C489.57 893.14 489.9 894.13 490.24 895.15 C489.25 895.81 488.26 896.47 487.24 897.15 C486.75 898.32 486.25 899.5 485.74 900.71 C485 902.41 485 902.41 484.24 904.15 C483.25 904.48 482.26 904.81 481.24 905.15 C480.12 906.98 480.12 906.98 479.24 909.15 C478.58 910.48 477.91 911.81 477.24 913.15 C476.58 913.15 475.92 913.15 475.24 913.15 C475 913.72 474.75 914.3 474.49 914.9 C473.06 917.47 471.46 919.21 469.24 921.15 C468.58 921.15 467.92 921.15 467.24 921.15 C467.15 922.23 467.15 922.23 467.06 923.33 C465.98 927.05 464.03 928.48 461.24 931.15 C460.39 931.99 459.55 932.83 458.67 933.7 C457.78 934.58 456.89 935.47 455.98 936.38 C454.49 937.85 453.01 939.33 451.52 940.81 C450.5 941.83 449.47 942.85 448.44 943.87 C446.95 945.35 445.46 946.83 443.98 948.31 C443.09 949.19 442.21 950.07 441.3 950.98 C439.21 952.97 439.21 952.97 438.24 955.15 C437.58 955.15 436.92 955.15 436.24 955.15 C436.24 956.47 436.24 957.79 436.24 959.15 C435.46 959.23 434.68 959.31 433.87 959.4 C433 959.64 432.14 959.89 431.24 960.15 C430.97 960.72 430.7 961.29 430.42 961.88 C428.79 965.02 426.51 966.81 423.87 969.15 C419.31 973.22 414.88 977.39 410.56 981.71 C410.04 982.22 409.52 982.73 408.99 983.26 C406.28 985.95 406.28 985.95 404.24 989.15 C402.26 990.18 400.26 991.18 398.24 992.15 C397.25 992.81 396.26 993.47 395.24 994.15 C394.25 993.82 393.26 993.49 392.24 993.15 C392.18 994.07 392.12 995 392.06 995.96 C391.24 999.15 391.24 999.15 389.18 1000.58 C387.73 1001.36 387.73 1001.36 386.24 1002.15 C384.91 1003.27 383.6 1004.41 382.31 1005.58 C379.12 1008.44 375.85 1010.82 372.24 1013.15 C371.36 1013.89 370.47 1014.63 369.56 1015.4 C367.24 1017.15 367.24 1017.15 364.24 1017.15 C363.91 1018.14 363.58 1019.13 363.24 1020.15 C360.63 1021.38 357.99 1022.23 355.24 1023.15 C354.91 1023.81 354.58 1024.47 354.24 1025.15 C354.9 1025.48 355.56 1025.81 356.24 1026.15 C353.93 1026.48 351.62 1026.81 349.24 1027.15 C348.91 1028.14 348.58 1029.13 348.24 1030.15 C345.63 1031.38 342.99 1032.23 340.24 1033.15 C339.91 1033.81 339.58 1034.47 339.24 1035.15 C339.9 1035.48 340.56 1035.81 341.24 1036.15 C338.93 1036.48 336.62 1036.81 334.24 1037.15 C333.91 1038.14 333.58 1039.13 333.24 1040.15 C329.68 1041.33 329.68 1041.33 326.24 1042.15 C326.24 1042.81 326.24 1043.47 326.24 1044.15 C323.87 1045.21 323.87 1045.21 321.24 1046.15 C320.58 1045.82 319.92 1045.49 319.24 1045.15 C319.57 1046.14 319.9 1047.13 320.24 1048.15 C319.35 1048.33 319.35 1048.33 318.43 1048.52 C315.98 1049.1 315.98 1049.1 313.24 1051.15 C312.58 1050.82 311.92 1050.49 311.24 1050.15 C311.24 1050.81 311.24 1051.47 311.24 1052.15 C310.48 1052.43 309.72 1052.72 308.93 1053.02 C306.09 1054.11 306.09 1054.11 303.24 1056.15 C302.58 1055.82 301.92 1055.49 301.24 1055.15 C301.24 1055.81 301.24 1056.47 301.24 1057.15 C300.48 1057.43 299.72 1057.72 298.93 1058.02 C296.09 1059.11 296.09 1059.11 293.24 1061.15 C292.58 1060.82 291.92 1060.49 291.24 1060.15 C291.24 1060.81 291.24 1061.47 291.24 1062.15 C290.48 1062.43 289.72 1062.72 288.93 1063.02 C286.09 1064.11 286.09 1064.11 283.24 1066.15 C282.58 1065.82 281.92 1065.49 281.24 1065.15 C281.24 1065.81 281.24 1066.47 281.24 1067.15 C280.48 1067.43 279.72 1067.72 278.93 1068.02 C276.09 1069.11 276.09 1069.11 273.24 1071.15 C272.58 1070.82 271.92 1070.49 271.24 1070.15 C271.24 1070.81 271.24 1071.47 271.24 1072.15 C270.48 1072.43 269.72 1072.72 268.93 1073.02 C266.09 1074.11 266.09 1074.11 263.24 1076.15 C262.58 1075.82 261.92 1075.49 261.24 1075.15 C261.24 1075.81 261.24 1076.47 261.24 1077.15 C260.58 1077.15 259.92 1077.15 259.24 1077.15 C259.24 1077.81 259.24 1078.47 259.24 1079.15 C258.56 1079.27 257.87 1079.39 257.16 1079.51 C256.26 1079.68 255.36 1079.85 254.43 1080.02 C253.54 1080.18 252.64 1080.35 251.72 1080.51 C249.02 1081.06 249.02 1081.06 246.24 1083.15 C245.58 1082.82 244.92 1082.49 244.24 1082.15 C244.24 1082.81 244.24 1083.47 244.24 1084.15 C242.27 1084.88 240.26 1085.54 238.24 1086.15 C237.58 1085.82 236.92 1085.49 236.24 1085.15 C236.24 1085.81 236.24 1086.47 236.24 1087.15 C235.58 1087.15 234.92 1087.15 234.24 1087.15 C234.24 1087.81 234.24 1088.47 234.24 1089.15 C233.07 1089.41 231.89 1089.68 230.68 1089.96 C227.84 1090.66 225.46 1091.48 222.74 1092.65 C219.53 1094.02 216.59 1094.84 213.21 1095.61 C210.95 1096.17 210.95 1096.17 207.81 1097.71 C204.16 1099.18 201.24 1099.61 197.36 1099.84 C194.95 1100.19 193.31 1100.88 191.24 1102.15 C190.91 1102.81 190.58 1103.47 190.24 1104.15 C187.92 1104.55 185.59 1104.89 183.24 1105.15 C183.24 1105.48 183.24 1105.81 183.24 1106.15 C182.3 1106.18 181.36 1106.22 180.39 1106.26 C179.15 1106.32 177.9 1106.39 176.62 1106.46 C175.39 1106.52 174.16 1106.57 172.89 1106.63 C169.1 1107.17 166.54 1108.25 163.24 1110.15 C163.24 1110.48 163.24 1110.81 163.24 1111.15 C162.13 1111.1 161.02 1111.06 159.87 1111.02 C154.87 1111.01 150.06 1111.86 145.24 1113.15 C144.91 1113.48 144.58 1113.81 144.24 1114.15 C141.98 1114.36 139.7 1114.51 137.43 1114.65 C133.55 1114.87 129.99 1115.15 126.24 1116.15 C122.59 1116.68 118.93 1117.16 115.26 1117.65 C112.37 1117.82 112.37 1117.82 111.24 1119.15 C109.44 1119.35 107.62 1119.51 105.81 1119.65 C101.88 1119.86 101.88 1119.86 98.24 1121.15 C96.3 1121.15 94.36 1121.14 92.42 1121.11 C89.29 1121.16 86.32 1121.63 83.24 1122.15 C83.24 1122.48 83.24 1122.81 83.24 1123.15 C74.72 1124.35 66.23 1124.31 57.63 1124.31 C56.02 1124.32 54.4 1124.32 52.79 1124.32 C49.41 1124.33 46.04 1124.33 42.66 1124.33 C38.37 1124.33 34.08 1124.34 29.79 1124.36 C26.46 1124.37 23.12 1124.37 19.79 1124.37 C18.21 1124.38 16.63 1124.38 15.05 1124.39 C4.94 1124.43 -5.06 1124.17 -14.9 1121.58 C-18.95 1120.63 -23.31 1121.2 -27.44 1121.31 C-30.69 1121.15 -32.01 1120.69 -34.76 1119.15 C-36.49 1118.73 -38.25 1118.38 -40.01 1118.08 C-41.45 1117.84 -41.45 1117.84 -42.92 1117.58 C-45.41 1117.2 -47.88 1116.87 -50.38 1116.58 C-53.76 1116.15 -53.76 1116.15 -54.76 1115.15 C-56.69 1114.93 -58.63 1114.78 -60.57 1114.65 C-64.1 1114.4 -67.35 1114.08 -70.76 1113.15 C-76.81 1111.87 -82.56 1110.87 -88.76 1111.15 C-88.76 1110.82 -88.76 1110.49 -88.76 1110.15 C-89.45 1110.02 -90.14 1109.9 -90.85 1109.78 C-92.81 1109.43 -94.78 1109.07 -96.74 1108.7 C-98.56 1108.37 -100.38 1108.04 -102.21 1107.74 C-106.29 1106.99 -109.25 1105.99 -112.69 1103.65 C-116.5 1101.06 -119.94 1100.27 -124.45 1099.54 C-126.76 1099.15 -126.76 1099.15 -129.82 1098.08 C-133.75 1096.83 -137.66 1096.49 -141.76 1096.15 C-142.09 1095.16 -142.42 1094.17 -142.76 1093.15 C-143.97 1093 -145.19 1092.86 -146.44 1092.71 C-155.66 1091.52 -155.66 1091.52 -158.76 1088.15 C-159.75 1087.82 -160.74 1087.49 -161.76 1087.15 C-161.76 1086.49 -161.76 1085.83 -161.76 1085.15 C-162.75 1085.48 -163.74 1085.81 -164.76 1086.15 C-166.66 1085.66 -166.66 1085.66 -168.69 1084.83 C-169.4 1084.55 -170.1 1084.27 -170.83 1083.98 C-172.85 1083.11 -174.79 1082.13 -176.76 1081.15 C-177.42 1080.98 -178.08 1080.82 -178.76 1080.65 C-180.96 1080.09 -182.75 1079.21 -184.76 1078.15 C-185.42 1077.82 -186.08 1077.49 -186.76 1077.15 C-186.76 1076.49 -186.76 1075.83 -186.76 1075.15 C-187.48 1075.02 -188.2 1074.9 -188.94 1074.77 C-191.71 1074.15 -194.15 1073.26 -196.76 1072.15 C-196.76 1071.49 -196.76 1070.83 -196.76 1070.15 C-197.48 1070.02 -198.2 1069.9 -198.94 1069.77 C-201.71 1069.15 -204.15 1068.26 -206.76 1067.15 C-206.76 1066.49 -206.76 1065.83 -206.76 1065.15 C-207.48 1065.03 -208.21 1064.91 -208.96 1064.79 C-211.77 1064.14 -213.9 1063.23 -216.44 1061.9 C-217.31 1061.45 -218.17 1061.01 -219.06 1060.55 C-219.95 1060.08 -220.84 1059.62 -221.76 1059.15 C-223.53 1058.25 -225.3 1057.35 -227.07 1056.46 C-227.85 1056.06 -228.63 1055.67 -229.43 1055.26 C-231.84 1054.11 -234.27 1053.11 -236.76 1052.15 C-236.76 1051.49 -236.76 1050.83 -236.76 1050.15 C-237.75 1050.48 -238.74 1050.81 -239.76 1051.15 C-241.59 1050.22 -241.59 1050.22 -243.57 1048.83 C-246.88 1046.62 -249.95 1045.35 -253.76 1044.15 C-254.09 1043.49 -254.42 1042.83 -254.76 1042.15 C-255.38 1041.84 -255.99 1041.53 -256.63 1041.21 C-258.76 1040.15 -258.76 1040.15 -260.19 1038.58 C-261.73 1036.91 -261.73 1036.91 -264.32 1036.71 C-265.12 1036.52 -265.93 1036.34 -266.76 1036.15 C-267.42 1034.81 -268.09 1033.48 -268.76 1032.15 C-271.2 1031.47 -271.2 1031.47 -273.76 1031.15 C-274.75 1030.49 -275.74 1029.83 -276.76 1029.15 C-276.76 1028.49 -276.76 1027.83 -276.76 1027.15 C-277.54 1027.06 -278.32 1026.98 -279.13 1026.9 C-280 1026.65 -280.86 1026.4 -281.76 1026.15 C-282.42 1024.81 -283.09 1023.48 -283.76 1022.15 C-286.31 1021.33 -286.31 1021.33 -288.76 1021.15 C-289.09 1020.16 -289.42 1019.17 -289.76 1018.15 C-290.42 1017.82 -291.08 1017.49 -291.76 1017.15 C-291.76 1016.49 -291.76 1015.83 -291.76 1015.15 C-292.75 1015.48 -293.74 1015.81 -294.76 1016.15 C-297.26 1014.33 -297.26 1014.33 -299.76 1012.15 C-300.75 1011.49 -301.74 1010.83 -302.76 1010.15 C-302.76 1009.49 -302.76 1008.83 -302.76 1008.15 C-303.75 1007.82 -304.74 1007.49 -305.76 1007.15 C-308.07 1005.41 -310.25 1003.67 -312.26 1001.58 C-314.74 999.21 -317.7 997.67 -320.76 996.15 C-320.76 995.49 -320.76 994.83 -320.76 994.15 C-321.42 994.15 -322.08 994.15 -322.76 994.15 C-323.76 993.15 -324.76 992.15 -325.76 991.15 C-326.42 991.15 -327.08 991.15 -327.76 991.15 C-328.09 990.16 -328.42 989.17 -328.76 988.15 C-329.42 987.82 -330.08 987.49 -330.76 987.15 C-336.19 983.14 -340.72 978.2 -345.41 973.37 C-346.05 972.71 -346.69 972.06 -347.36 971.38 C-347.94 970.79 -348.52 970.19 -349.12 969.57 C-350.81 967.91 -350.81 967.91 -353.76 967.15 C-354.46 965.83 -355.12 964.49 -355.76 963.15 C-357.48 961.09 -358.96 960.03 -361.32 958.71 C-364.05 956.96 -364.42 955.99 -365.76 953.15 C-368.3 950.4 -370.64 948.22 -373.76 946.15 C-375.13 944.53 -376.51 942.92 -377.86 941.29 C-380.96 937.78 -384.39 934.6 -387.78 931.38 C-389.76 929.15 -389.76 929.15 -389.76 926.15 C-390.42 926.15 -391.08 926.15 -391.76 926.15 C-391.76 925.49 -391.76 924.83 -391.76 924.15 C-392.75 923.82 -393.74 923.49 -394.76 923.15 C-396.11 921.16 -397.44 919.16 -398.76 917.15 C-399.6 916.3 -400.45 915.45 -401.32 914.58 C-403.68 912.23 -405.1 910.01 -406.76 907.15 C-407.31 906.61 -407.87 906.07 -408.44 905.52 C-409.76 904.15 -409.76 904.15 -409.76 901.15 C-410.42 901.15 -411.08 901.15 -411.76 901.15 C-411.76 900.49 -411.76 899.83 -411.76 899.15 C-412.42 898.82 -413.08 898.49 -413.76 898.15 C-418.76 892.55 -418.76 892.55 -418.76 890.15 C-419.42 889.82 -420.08 889.49 -420.76 889.15 C-422.1 887.15 -423.43 885.15 -424.76 883.15 C-425.31 882.59 -425.87 882.03 -426.44 881.46 C-427.76 880.15 -427.76 880.15 -428.76 877.15 C-429.23 876.67 -429.71 876.2 -430.19 875.71 C-431.93 873.97 -432.69 872.35 -433.76 870.15 C-434.29 869.44 -434.83 868.74 -435.38 868.02 C-436.76 866.15 -436.76 866.15 -436.76 864.15 C-437.42 864.15 -438.08 864.15 -438.76 864.15 C-439.43 862.86 -440.09 861.56 -440.76 860.27 C-441.13 859.55 -441.5 858.83 -441.88 858.09 C-442.76 856.15 -442.76 856.15 -442.76 854.15 C-443.75 853.82 -444.74 853.49 -445.76 853.15 C-445.94 851.69 -445.94 851.69 -446.13 850.21 C-446.44 848.69 -446.44 848.69 -446.76 847.15 C-447.42 846.82 -448.08 846.49 -448.76 846.15 C-451.76 841.65 -451.76 841.65 -451.76 839.15 C-452.42 839.15 -453.08 839.15 -453.76 839.15 C-456.76 832.4 -456.76 832.4 -456.76 830.15 C-457.42 830.15 -458.08 830.15 -458.76 830.15 C-459.01 829.55 -459.27 828.95 -459.53 828.34 C-462.21 822.27 -465.17 816.42 -468.32 810.58 C-471.25 805.14 -473.93 799.77 -476 793.93 C-476.71 791.94 -476.71 791.94 -478.76 790.15 C-478.76 788.83 -478.76 787.51 -478.76 786.15 C-479.42 786.15 -480.08 786.15 -480.76 786.15 C-481.09 783.51 -481.42 780.87 -481.76 778.15 C-482.42 778.15 -483.08 778.15 -483.76 778.15 C-484.26 776.71 -484.76 775.27 -485.26 773.83 C-485.54 773.03 -485.81 772.23 -486.1 771.41 C-486.76 769.15 -486.76 769.15 -486.76 766.15 C-487.42 766.15 -488.08 766.15 -488.76 766.15 C-488.76 764.5 -488.76 762.85 -488.76 761.15 C-489.42 761.15 -490.08 761.15 -490.76 761.15 C-491.09 758.51 -491.42 755.87 -491.76 753.15 C-492.42 753.15 -493.08 753.15 -493.76 753.15 C-494.05 752.11 -494.33 751.08 -494.63 750.02 C-495.9 744.13 -495.9 744.13 -498.76 739.15 C-498.86 738.16 -498.96 737.17 -499.07 736.15 C-499.45 733.17 -500.25 730.9 -501.57 728.21 C-504.45 722.11 -505.76 715.58 -507.3 709.05 C-507.93 706.44 -508.65 703.85 -509.38 701.27 C-510.6 696.9 -511.52 692.51 -512.33 688.04 C-512.58 686.14 -512.58 686.14 -513.76 685.15 C-514.03 683.79 -514.25 682.43 -514.44 681.07 C-514.56 680.24 -514.69 679.4 -514.81 678.55 C-515.06 676.8 -515.31 675.04 -515.56 673.29 C-515.69 672.45 -515.81 671.62 -515.94 670.75 C-516.1 669.61 -516.1 669.61 -516.27 668.44 C-516.7 666.08 -516.7 666.08 -517.76 663.73 C-518.88 660.82 -519.25 658.25 -519.57 655.15 C-519.7 654.01 -519.82 652.88 -519.95 651.71 C-520.07 650.53 -520.19 649.36 -520.32 648.15 C-520.57 645.81 -520.82 643.48 -521.07 641.15 C-521.23 639.6 -521.23 639.6 -521.4 638.02 C-521.87 634.24 -522.55 630.76 -523.76 627.15 C-523.96 624.37 -524.13 621.61 -524.26 618.83 C-524.33 617.34 -524.4 615.84 -524.48 614.34 C-524.52 613.35 -524.52 613.35 -524.57 612.34 C-524.72 610.07 -524.72 610.07 -525.26 607.54 C-525.84 603.54 -525.9 599.62 -525.89 595.59 C-525.89 594.75 -525.89 593.91 -525.89 593.05 C-525.9 590.29 -525.89 587.53 -525.89 584.77 C-525.89 582.85 -525.89 580.92 -525.89 579 C-525.89 574.97 -525.89 570.94 -525.89 566.91 C-525.88 561.75 -525.88 556.6 -525.89 551.44 C-525.89 547.46 -525.89 543.49 -525.89 539.52 C-525.89 537.62 -525.89 535.71 -525.89 533.81 C-525.9 531.15 -525.89 528.49 -525.89 525.83 C-525.89 525.05 -525.89 524.27 -525.89 523.47 C-525.87 518.94 -525.49 514.63 -524.76 510.15 C-524.58 508.51 -524.41 506.87 -524.26 505.23 C-524.17 504.37 -524.09 503.5 -524.01 502.62 C-523.84 500.83 -523.67 499.05 -523.51 497.26 C-523.42 496.41 -523.34 495.55 -523.26 494.66 C-523.15 493.51 -523.15 493.51 -523.04 492.32 C-522.76 490.2 -522.29 488.22 -521.76 486.15 C-521.46 483.01 -521.25 479.87 -521.04 476.73 C-520.76 474.15 -520.76 474.15 -519.76 473.15 C-519.38 470.67 -519.05 468.2 -518.76 465.71 C-517.89 458.41 -517.89 458.41 -516.76 456.15 C-516.53 454.44 -516.35 452.73 -516.19 451.02 C-516.11 450.11 -516.03 449.2 -515.94 448.26 C-515.88 447.56 -515.82 446.87 -515.76 446.15 C-515.1 446.15 -514.44 446.15 -513.76 446.15 C-513.82 444.6 -513.82 444.6 -513.88 443.02 C-513.76 439.2 -513 436.72 -511.76 433.15 C-511.56 431.82 -511.4 430.48 -511.26 429.15 C-510.87 425.59 -510 422.51 -508.76 419.15 C-507.61 415.99 -506.77 413.24 -506.38 409.9 C-505.69 405.77 -504.34 402.39 -502.74 398.56 C-500.46 392.96 -499.2 387.01 -497.76 381.15 C-497.1 381.15 -496.44 381.15 -495.76 381.15 C-495.8 380.27 -495.85 379.39 -495.89 378.49 C-495.75 374.95 -495.03 372.85 -493.57 369.65 C-490.61 362.92 -488.17 356.08 -485.76 349.15 C-485.1 349.15 -484.44 349.15 -483.76 349.15 C-483.69 348.22 -483.63 347.29 -483.57 346.33 C-482.83 340.86 -480.16 336.05 -477.76 331.15 C-477.1 331.15 -476.44 331.15 -475.76 331.15 C-475.68 330.5 -475.59 329.86 -475.51 329.2 C-474.46 324.96 -472.6 321.25 -470.69 317.33 C-470.3 316.5 -469.9 315.68 -469.49 314.82 C-465.67 306.89 -461.73 299 -457.76 291.15 C-457.1 291.15 -456.44 291.15 -455.76 291.15 C-455.63 290.42 -455.51 289.7 -455.38 288.96 C-453.88 282.2 -453.88 282.2 -451.41 279.88 C-448.35 276.66 -446.51 272.54 -444.38 268.66 C-443.84 267.83 -443.31 267 -442.76 266.15 C-442.1 266.15 -441.44 266.15 -440.76 266.15 C-440.65 265.38 -440.55 264.62 -440.44 263.83 C-439.67 260.8 -438.95 260.26 -436.76 258.15 C-435.83 256.52 -434.9 254.89 -433.99 253.24 C-432.01 249.88 -429.71 246.75 -427.44 243.57 C-425.76 241.16 -424.27 238.67 -422.76 236.15 C-421.43 234.47 -420.1 232.8 -418.76 231.15 C-416.46 228.06 -414.23 225.01 -412.38 221.65 C-410.85 219.29 -409.34 217.7 -407.32 215.77 C-404.5 213.05 -402.73 210.46 -400.92 206.97 C-398.99 203.95 -396.37 201.65 -393.76 199.24 C-391.64 197.16 -391.64 197.16 -389.98 194.38 C-387.66 191.01 -385.06 188.21 -382.15 185.38 C-381.63 184.86 -381.1 184.34 -380.56 183.81 C-378.9 182.16 -377.24 180.53 -375.57 178.9 C-373.89 177.25 -372.22 175.6 -370.54 173.94 C-369.51 172.92 -368.47 171.9 -367.43 170.88 C-364.75 168.27 -364.75 168.27 -362.76 165.15 C-362.1 165.15 -361.44 165.15 -360.76 165.15 C-360.76 164.49 -360.76 163.83 -360.76 163.15 C-359.36 161.78 -359.36 161.78 -357.39 160.16 C-351.22 154.91 -345.66 149.06 -340 143.26 C-335.79 138.99 -331.85 135.3 -326.76 132.15 C-324.18 129.91 -321.71 127.6 -319.22 125.27 C-316.83 123.21 -314.47 121.74 -311.76 120.15 C-309.76 118.65 -307.78 117.12 -305.82 115.58 C-300.96 111.81 -296.06 108.12 -291.07 104.52 C-290.47 104.08 -289.87 103.64 -289.25 103.19 C-284.99 100.15 -284.99 100.15 -282.76 100.15 C-282.76 99.49 -282.76 98.83 -282.76 98.15 C-280.66 96.67 -278.58 95.33 -276.38 94.02 C-275.78 93.65 -275.18 93.28 -274.55 92.89 C-270.03 90.15 -270.03 90.15 -267.76 90.15 C-267.76 89.49 -267.76 88.83 -267.76 88.15 C-264.85 86.1 -263.36 85.15 -259.76 85.15 C-259.76 84.49 -259.76 83.83 -259.76 83.15 C-258.74 82.62 -258.74 82.62 -257.7 82.08 C-251.76 78.93 -246.3 75.54 -240.95 71.47 C-238.76 70.15 -238.76 70.15 -234.76 70.15 C-234.76 69.49 -234.76 68.83 -234.76 68.15 C-228.13 65.15 -228.13 65.15 -224.76 65.15 C-224.76 64.49 -224.76 63.83 -224.76 63.15 C-222.18 61.8 -219.59 60.47 -217.01 59.15 C-216.28 58.76 -215.55 58.38 -214.8 57.99 C-213.73 57.45 -213.73 57.45 -212.65 56.9 C-212 56.56 -211.35 56.22 -210.68 55.88 C-208.76 55.15 -208.76 55.15 -204.76 55.15 C-204.76 54.49 -204.76 53.83 -204.76 53.15 C-198.13 50.15 -198.13 50.15 -194.76 50.15 C-194.76 49.49 -194.76 48.83 -194.76 48.15 C-194.02 47.93 -193.28 47.71 -192.52 47.48 C-185.98 45.44 -180.23 42.92 -174.29 39.53 C-169.76 37.05 -165.11 35.52 -160.13 34.15 C-156.72 33.26 -156.72 33.26 -153.69 31.52 C-150.45 30 -148.29 29.89 -144.76 30.15 C-144.76 29.49 -144.76 28.83 -144.76 28.15 C-138.45 25.89 -132.11 24.17 -125.61 22.59 C-121.29 21.54 -117.02 20.38 -112.76 19.15 C-109.84 18.37 -106.93 17.6 -104.01 16.83 C-101.81 16.35 -101.81 16.35 -100.76 15.15 C-98.82 14.91 -96.88 14.68 -94.94 14.46 C-90.64 13.84 -86.57 12.4 -82.44 11.08 C-78.65 10.12 -75.06 9.76 -71.17 9.43 C-67.91 9.05 -64.9 8.06 -61.76 7.15 C-59.37 6.83 -56.98 6.59 -54.58 6.39 C-52.74 6.33 -52.74 6.33 -51.76 5.15 C-48.33 4.87 -44.91 4.7 -41.48 4.54 C-37.81 4.68 -37.81 4.68 -34.76 3.15 C-32.93 2.93 -31.1 2.77 -29.26 2.65 C-27.59 2.52 -27.59 2.52 -25.88 2.4 C-24.7 2.31 -23.53 2.23 -22.32 2.15 C-20.01 1.98 -17.7 1.82 -15.39 1.65 C-14.35 1.57 -13.32 1.5 -12.26 1.43 C-8.05 0.95 -4.4 -0 0 0 Z M518.24 271.15 C519.24 273.15 519.24 273.15 519.24 273.15 Z M538.24 308.15 C539.24 310.15 539.24 310.15 539.24 310.15 Z M-99.76 1106.15 C-99.76 1106.48 -99.76 1106.81 -99.76 1107.15 C-98.11 1107.15 -96.46 1107.15 -94.76 1107.15 C-94.76 1106.82 -94.76 1106.49 -94.76 1106.15 C-96.41 1106.15 -98.06 1106.15 -99.76 1106.15 Z M92.24 1119.15 C92.24 1119.48 92.24 1119.81 92.24 1120.15 C94.22 1120.15 96.2 1120.15 98.24 1120.15 C98.24 1119.82 98.24 1119.49 98.24 1119.15 C96.26 1119.15 94.28 1119.15 92.24 1119.15 Z M-8.76 1121.15 C-8.76 1121.48 -8.76 1121.81 -8.76 1122.15 C3.12 1122.15 15 1122.15 27.24 1122.15 C27.24 1121.82 27.24 1121.49 27.24 1121.15 C15.36 1121.15 3.48 1121.15 -8.76 1121.15 Z " fill="#23211A" transform="translate(602.756591796875,76.854736328125)"/>
<path d="M0 0 C3.02 0 6.04 -0.01 9.06 -0.04 C40.4 -0.32 70.65 3.06 101.38 9.37 C102.2 9.54 103.03 9.7 103.89 9.87 C141.32 17.34 178.85 30.64 212.6 48.44 C214.39 49.38 216.18 50.3 217.97 51.22 C249.04 67.3 277.91 87.56 304.38 110.37 C305.06 110.95 305.74 111.53 306.44 112.13 C316.64 120.9 326.35 130.26 335.88 139.75 C336.52 140.39 337.17 141.03 337.83 141.69 C342.22 146.09 346.33 150.67 350.38 155.37 C351.42 156.56 352.47 157.75 353.52 158.94 C360.76 167.2 367.73 175.62 374.38 184.37 C375.21 185.46 375.21 185.46 376.05 186.57 C383.14 195.93 389.86 205.38 395.94 215.41 C398.07 218.91 400.31 222.31 402.58 225.72 C407.76 233.55 412.15 241.48 416.2 249.95 C417.56 252.76 418.98 255.53 420.41 258.31 C442.65 301.81 457.16 347.26 465.38 395.37 C465.56 396.38 465.73 397.39 465.92 398.42 C467.08 405.1 467.9 411.74 468.44 418.5 C468.52 419.5 468.6 420.5 468.69 421.53 C468.93 424.48 469.15 427.42 469.38 430.37 C469.44 431.13 469.5 431.89 469.56 432.67 C472.95 476.1 469.62 521.05 459.38 563.37 C458.97 565.11 458.56 566.85 458.15 568.6 C457.7 570.48 457.26 572.36 456.81 574.25 C456.6 575.14 456.39 576.03 456.18 576.95 C449.12 606.67 437.91 635.57 425.38 663.37 C425.01 664.18 424.65 664.98 424.28 665.81 C419.23 676.93 413.62 687.66 407.57 698.27 C406.29 700.53 405.03 702.8 403.77 705.08 C400.86 710.33 397.63 715.33 394.38 720.37 C393.56 721.65 392.75 722.94 391.94 724.22 C376.55 748.42 358.98 770.83 339.59 791.94 C337.73 793.99 335.92 796.07 334.13 798.18 C326.85 806.54 318.82 814.51 310.36 821.67 C307.83 823.84 305.39 826.11 302.94 828.37 C298.25 832.64 293.43 836.55 288.38 840.37 C287.12 841.35 285.86 842.33 284.6 843.3 C275.63 850.26 266.5 856.85 257.1 863.2 C254.72 864.82 252.4 866.5 250.06 868.18 C246.06 870.99 241.93 873.36 237.61 875.65 C234.38 877.37 231.19 879.15 228 880.95 C195.12 899.42 160.56 913.54 123.97 922.71 C121.77 923.27 119.57 923.86 117.38 924.46 C94.23 930.67 69.84 934.1 45.94 935.5 C44.88 935.56 44.88 935.56 43.81 935.62 C-18.96 939.26 -79.82 931.18 -140.21 913.88 C-143.66 912.89 -147.09 912.01 -150.62 911.37 C-150.62 911.04 -150.62 910.71 -150.62 910.37 C-147.15 909.8 -143.96 909.35 -140.44 909.56 C-131.24 909.11 -122.67 905.22 -115.62 899.37 C-114.49 898.07 -113.36 896.76 -112.25 895.43 C-110.21 893.32 -109.24 892.41 -106.27 892.21 C-99.44 893.04 -92.78 894.25 -86.06 895.75 C-83.93 896.2 -81.79 896.65 -79.66 897.1 C-78.62 897.32 -77.58 897.54 -76.52 897.77 C-69.58 899.21 -62.65 900.4 -55.62 901.37 C-54.7 901.51 -53.77 901.64 -52.82 901.79 C-33.96 904.46 -15.08 904.69 3.94 904.74 C5.9 904.75 7.85 904.76 9.81 904.77 C35.3 904.89 60.49 903.06 85.5 898 C87.09 897.68 88.69 897.37 90.28 897.05 C94.02 896.31 97.76 895.54 101.49 894.76 C103.13 894.42 104.76 894.09 106.4 893.75 C136.81 887.43 168.3 875.48 195.42 860.52 C199.43 858.32 203.52 856.31 207.63 854.31 C214.84 850.75 221.6 846.71 228.38 842.37 C229.23 841.84 230.08 841.31 230.96 840.77 C245.6 831.64 259.51 821.77 272.75 810.71 C274.77 809.05 276.84 807.49 278.94 805.93 C284.61 801.58 289.69 796.55 294.88 791.65 C297.34 789.32 299.85 787.06 302.44 784.87 C310.76 777.7 318.64 769.67 325.74 761.28 C327.72 758.97 329.76 756.74 331.81 754.5 C354.41 729.39 372.72 700.63 389.38 671.37 C390.02 670.24 390.02 670.24 390.67 669.09 C402.94 647.35 412.44 624 420.38 600.37 C420.84 599.01 420.84 599.01 421.32 597.62 C450.29 512.94 449.63 418.31 401.38 288.37 C401.07 287.73 400.77 287.09 400.46 286.43 C391.27 267.01 380.68 247.97 368.38 230.37 C367.06 228.37 365.75 226.37 364.44 224.37 C351.63 205.17 336.93 187.39 321.38 170.37 C320.48 169.38 319.58 168.39 318.69 167.4 C311.31 159.27 303.81 151.34 295.47 144.18 C293.11 142.14 290.81 140.04 288.5 137.93 C284.4 134.23 280.18 130.73 275.84 127.31 C274.29 126.09 272.75 124.85 271.23 123.59 C206.59 70.17 124.01 40.62 41.27 32.65 C39.47 32.48 37.68 32.29 35.89 32.08 C26.23 31.02 16.52 31.17 6.81 31.18 C5.85 31.18 4.9 31.18 3.91 31.19 C-37.77 31.27 -78.67 37.36 -118.62 49.37 C-119.37 49.59 -120.12 49.81 -120.88 50.04 C-156.87 60.78 -192.93 76.1 -224.62 96.37 C-225.54 96.94 -226.45 97.5 -227.4 98.09 C-238.47 104.99 -249.27 112.43 -259.62 120.37 C-261.58 121.83 -263.54 123.29 -265.5 124.75 C-274.24 131.32 -282.57 138.11 -290.57 145.56 C-292.74 147.58 -294.96 149.51 -297.21 151.43 C-302.55 156.09 -307.52 161.12 -312.52 166.14 C-314.18 167.8 -315.85 169.46 -317.51 171.12 C-323.09 176.7 -328.54 182.33 -333.62 188.37 C-334.57 189.47 -335.52 190.58 -336.47 191.68 C-345.69 202.52 -354.1 213.75 -362.25 225.42 C-363.41 227.06 -364.57 228.7 -365.74 230.34 C-369.67 235.86 -373.22 241.52 -376.62 247.37 C-377.14 248.25 -377.67 249.13 -378.2 250.03 C-380.03 253.14 -381.83 256.25 -383.62 259.37 C-383.99 260 -384.36 260.63 -384.73 261.27 C-408.76 302.64 -423.67 348.3 -431.44 395.37 C-431.63 396.55 -431.83 397.73 -432.03 398.94 C-434.96 417.77 -435.98 436.52 -435.87 455.56 C-435.87 456.58 -435.87 457.61 -435.86 458.67 C-435.8 474.64 -435.49 490.49 -433.62 506.37 C-433.47 507.67 -433.32 508.96 -433.17 510.3 C-428.47 549.65 -419.32 588.28 -405.5 625.43 C-405.26 626.09 -405.01 626.74 -404.77 627.41 C-401.72 635.6 -398.2 643.4 -394.22 651.16 C-392.86 653.9 -391.67 656.61 -390.58 659.47 C-388.27 665.48 -385.3 671.11 -382.31 676.81 C-381.77 677.86 -381.22 678.92 -380.66 680.01 C-377 687.04 -372.96 693.73 -368.62 700.37 C-367.52 702.14 -366.41 703.91 -365.31 705.68 C-361.38 711.86 -357.13 717.78 -352.83 723.7 C-351.72 725.24 -350.62 726.78 -349.52 728.32 C-344.81 734.9 -339.81 741.17 -334.62 747.37 C-334.2 747.88 -333.78 748.39 -333.35 748.91 C-320.23 764.71 -306.43 780.43 -290.28 793.21 C-287.55 795.43 -285 797.77 -282.44 800.18 C-275.58 806.47 -268.15 811.92 -260.62 817.37 C-259.94 817.87 -259.26 818.37 -258.55 818.88 C-247.54 826.87 -236.2 834.24 -224.62 841.37 C-223.94 841.8 -223.26 842.22 -222.55 842.66 C-214.98 847.35 -207.35 851.67 -199.34 855.56 C-195.61 857.37 -191.9 859.22 -188.19 861.08 C-187.55 861.4 -186.92 861.72 -186.26 862.05 C-184.72 862.82 -183.17 863.6 -181.62 864.37 C-181.64 827.51 -181.68 790.65 -181.75 753.79 C-181.76 749.44 -181.77 745.09 -181.78 740.74 C-181.78 739.88 -181.78 739.01 -181.78 738.12 C-181.81 724.09 -181.82 710.06 -181.82 696.03 C-181.82 681.64 -181.84 667.25 -181.88 652.86 C-181.91 643.98 -181.92 635.1 -181.91 626.21 C-181.9 620.12 -181.91 614.04 -181.94 607.95 C-181.96 604.43 -181.96 600.92 -181.95 597.41 C-181.93 593.6 -181.96 589.79 -181.98 585.98 C-181.97 584.87 -181.96 583.75 -181.95 582.61 C-181.99 576.5 -181.99 576.5 -184.98 571.31 C-185.85 570.67 -186.72 570.03 -187.62 569.37 C-188.6 568.51 -189.57 567.64 -190.57 566.75 C-191.08 566.3 -191.6 565.84 -192.13 565.38 C-215.88 544.23 -229.71 513.9 -232.46 482.25 C-232.78 476.64 -232.81 471.02 -232.81 465.4 C-232.81 463.27 -232.83 461.14 -232.85 459.02 C-232.91 445.48 -231.35 432.35 -228.44 419.12 C-228.12 417.67 -228.12 417.67 -227.79 416.2 C-222.26 392.08 -212.56 366.53 -191.36 352.07 C-177.67 343.59 -163.4 340.69 -147.62 344.37 C-138.48 347.08 -132.22 351.57 -125.62 358.37 C-125 359 -124.37 359.63 -123.73 360.27 C-118.38 365.98 -114.57 372.67 -110.62 379.37 C-109.85 380.58 -109.85 380.58 -109.07 381.81 C-107.29 384.97 -106 388.23 -104.75 391.62 C-104.36 392.67 -104.36 392.67 -103.97 393.74 C-87.68 438.58 -84.41 487.53 -104.64 531.59 C-111.89 546.83 -122.37 563.34 -137.38 571.95 C-139.93 573.23 -139.93 573.23 -140.62 576.37 C-140.72 577.97 -140.75 579.58 -140.75 581.18 C-140.76 582.68 -140.76 582.68 -140.77 584.2 C-140.76 585.3 -140.76 586.4 -140.76 587.53 C-140.76 588.7 -140.77 589.86 -140.77 591.06 C-140.78 594.3 -140.78 597.54 -140.78 600.78 C-140.78 604.27 -140.79 607.76 -140.8 611.25 C-140.81 617.3 -140.82 623.36 -140.82 629.41 C-140.83 638.99 -140.85 648.57 -140.88 658.14 C-140.88 661.42 -140.89 664.7 -140.9 667.98 C-140.9 669.21 -140.9 669.21 -140.9 670.46 C-140.92 679.79 -140.94 689.12 -140.96 698.45 C-140.96 699.3 -140.96 700.15 -140.97 701.03 C-140.99 714.83 -141.01 728.63 -141.03 742.43 C-141.05 756.61 -141.07 770.79 -141.11 784.96 C-141.14 793.7 -141.15 802.44 -141.15 811.18 C-141.15 817.17 -141.17 823.17 -141.19 829.17 C-141.2 832.63 -141.21 836.08 -141.2 839.54 C-141.16 878.56 -141.16 878.56 -152.55 891.57 C-159.03 897.57 -165.38 900.08 -174.24 899.77 C-184.11 898.61 -193.56 893.14 -202.25 888.56 C-203.31 888 -204.37 887.45 -205.46 886.87 C-235.76 870.79 -265.29 852.43 -291.62 830.37 C-293.25 829.07 -294.87 827.78 -296.5 826.5 C-317.22 809.92 -338.27 791.76 -354.67 770.82 C-356.64 768.35 -358.72 766.06 -360.87 763.75 C-367.29 756.69 -372.94 749.02 -378.62 741.37 C-379.07 740.77 -379.52 740.16 -379.99 739.54 C-390.58 725.27 -400 710.13 -408.47 694.51 C-409.27 693.03 -410.07 691.56 -410.88 690.09 C-452.23 614.97 -468.04 528.42 -463.62 402.37 C-463.52 401.59 -463.41 400.82 -463.3 400.02 C-462.72 395.99 -461.99 391.99 -461.17 388 C-460.61 385.32 -460.08 382.63 -459.56 379.94 C-455.96 361.72 -451.56 344 -445.62 326.37 C-445.32 325.48 -445.03 324.58 -444.72 323.66 C-442.77 317.87 -440.72 312.11 -438.62 306.37 C-438.3 305.49 -437.98 304.61 -437.66 303.7 C-433.83 293.21 -429.74 283.14 -424.56 273.23 C-423.12 270.37 -421.78 267.46 -420.44 264.55 C-415.64 254.21 -410.36 244.22 -404.62 234.37 C-404.21 233.67 -403.81 232.96 -403.38 232.24 C-392.52 213.69 -380.52 195.58 -366.89 178.94 C-365.56 177.3 -364.28 175.63 -363 173.95 C-357.08 166.19 -350.72 159 -343.98 151.94 C-341.66 149.5 -339.43 147.01 -337.23 144.46 C-333.4 140.05 -329.32 135.92 -325.19 131.81 C-324.47 131.09 -323.76 130.38 -323.03 129.64 C-318.39 125.01 -313.6 120.64 -308.62 116.37 C-307.54 115.42 -306.46 114.47 -305.38 113.52 C-297.1 106.3 -288.52 99.56 -279.74 92.97 C-277.71 91.43 -275.7 89.87 -273.69 88.3 C-264.26 80.98 -254.36 74.77 -244.04 68.78 C-241.51 67.3 -238.99 65.8 -236.48 64.28 C-223.64 56.57 -210.54 49.77 -196.95 43.46 C-195 42.54 -193.05 41.62 -191.1 40.69 C-147.3 19.91 -98.68 7.62 -50.62 2.37 C-49.97 2.29 -49.31 2.21 -48.64 2.13 C-32.45 0.14 -16.28 -0 0 0 Z " fill="#F9FBFB" transform="translate(637.623779296875,170.62939453125)"/>
<path d="M0 0 C5.53 5.92 5.71 10.77 5.63 18.66 C5.63 19.81 5.64 20.97 5.65 22.16 C5.67 25.96 5.65 29.77 5.64 33.57 C5.64 36.22 5.65 38.87 5.67 41.52 C5.7 47.77 5.7 54.03 5.69 60.28 C5.68 72.15 5.71 84.02 5.75 95.88 C5.76 99.78 5.76 103.68 5.75 107.58 C5.75 109.97 5.76 112.35 5.76 114.73 C5.75 115.82 5.75 116.91 5.74 118.03 C5.75 119.02 5.75 120.02 5.76 121.05 C5.75 121.91 5.75 122.78 5.75 123.67 C6.03 126.24 6.64 127.82 8 130 C10.94 132.35 12.81 132.98 16.56 133.44 C20.03 133.29 20.03 133.29 22.38 131.19 C24.85 127.85 25.13 125.19 25.14 121.16 C25.16 119.66 25.16 119.66 25.17 118.13 C25.17 116.49 25.17 116.49 25.17 114.81 C25.18 113.66 25.19 112.51 25.19 111.32 C25.21 108.81 25.22 106.31 25.23 103.8 C25.25 99.83 25.27 95.86 25.29 91.9 C25.37 80.62 25.43 69.34 25.48 58.05 C25.51 51.82 25.54 45.59 25.58 39.36 C25.61 36.07 25.62 32.77 25.63 29.48 C25.65 25.8 25.67 22.12 25.7 18.44 C25.7 17.35 25.7 16.26 25.7 15.14 C25.71 14.14 25.72 13.13 25.73 12.1 C25.73 11.23 25.74 10.36 25.74 9.47 C26.04 6.62 26.69 4.54 28 2 C31.55 -0.05 34.09 -0.98 38.19 -1.06 C41.24 0.09 42.46 1.26 44.17 4.01 C45.93 8.23 45.56 12.81 45.53 17.31 C45.54 18.44 45.55 19.57 45.56 20.74 C45.58 24.47 45.58 28.2 45.57 31.93 C45.59 34.53 45.6 37.13 45.62 39.73 C45.65 45.87 45.67 52.01 45.68 58.15 C45.69 69.79 45.75 81.42 45.81 93.06 C45.82 96.88 45.83 100.7 45.84 104.52 C45.84 106.87 45.85 109.21 45.86 111.56 C45.86 112.62 45.86 113.68 45.86 114.77 C45.88 119.96 46.1 124.89 47 130 C47.8 130.31 48.61 130.62 49.44 130.94 C52 132 52 132 53 133 C57.33 133.5 59.31 133.51 62.88 130.88 C67.08 125.18 66.12 118.07 66.07 111.27 C66.06 110.2 66.06 109.13 66.05 108.03 C66.04 105.72 66.03 103.4 66.01 101.08 C65.99 97.41 65.98 93.74 65.97 90.07 C65.93 79.64 65.89 69.21 65.83 58.77 C65.79 52.39 65.77 46 65.75 39.61 C65.75 37.18 65.73 34.75 65.71 32.32 C65.69 28.92 65.68 25.52 65.68 22.12 C65.66 21.12 65.65 20.12 65.64 19.1 C65.66 13.07 66.2 7.44 69 2 C72.2 -0.42 74.08 -0.96 78.06 -1.12 C82.21 0.46 84.17 3.08 86 7 C86.7 10.92 86.64 14.76 86.58 18.73 C86.58 20.48 86.58 20.48 86.59 22.26 C86.59 24.77 86.58 27.29 86.56 29.81 C86.53 33.8 86.53 37.78 86.54 41.76 C86.56 50.22 86.53 58.67 86.5 67.12 C86.47 76.26 86.44 85.4 86.46 94.53 C86.47 99.13 86.44 103.72 86.41 108.32 C86.41 110.72 86.41 113.12 86.42 115.53 C86.4 116.62 86.39 117.71 86.37 118.84 C86.29 125.08 86.29 125.08 89.47 130.15 C90.31 130.76 91.14 131.37 92 132 C92.33 132.33 92.66 132.66 93 133 C97.12 133.4 99.32 133.43 102.88 131.19 C105.98 127.99 106.13 125.43 106.13 121.16 C106.14 120.17 106.14 119.17 106.14 118.14 C106.14 117.05 106.14 115.96 106.14 114.83 C106.15 113.1 106.15 113.1 106.15 111.34 C106.16 108.84 106.17 106.33 106.17 103.83 C106.18 99.86 106.19 95.9 106.21 91.94 C106.22 90.58 106.22 89.22 106.23 87.87 C106.23 86.85 106.23 86.85 106.24 85.81 C106.28 76.58 106.31 67.36 106.33 58.13 C106.33 51.91 106.36 45.68 106.4 39.46 C106.42 36.17 106.43 32.87 106.42 29.58 C106.42 25.91 106.44 22.23 106.47 18.56 C106.46 16.93 106.46 16.93 106.45 15.27 C106.53 9.2 106.94 5.61 111 1 C113.51 -0.92 114.75 -1 117.94 -1 C122.23 0.4 123.42 2.32 126 6 C126.98 8.93 127.13 10.81 127.13 13.86 C127.14 15.37 127.14 15.37 127.15 16.9 C127.15 18 127.15 19.1 127.15 20.24 C127.15 21.4 127.15 22.56 127.16 23.75 C127.16 27.61 127.17 31.46 127.17 35.31 C127.17 37.32 127.17 39.33 127.18 41.33 C127.18 47.66 127.19 53.98 127.19 60.31 C127.18 66.79 127.2 73.27 127.21 79.74 C127.22 85.33 127.23 90.92 127.23 96.51 C127.23 99.84 127.23 103.16 127.24 106.49 C127.34 143.86 127.34 143.86 122.75 159.69 C122.54 160.46 122.32 161.24 122.1 162.03 C114.9 187.28 102.95 210.44 82 227 C80.72 227.63 80.72 227.63 79.41 228.27 C76.78 229.77 76.78 229.77 76.37 232.43 C76.37 233.41 76.37 234.38 76.37 235.39 C76.36 237.08 76.36 237.08 76.34 238.8 C76.35 240.04 76.36 241.28 76.37 242.56 C76.37 243.88 76.36 245.19 76.35 246.55 C76.33 250.21 76.35 253.86 76.36 257.52 C76.38 261.47 76.36 265.41 76.35 269.35 C76.33 276.19 76.33 283.02 76.35 289.86 C76.37 299.75 76.36 309.65 76.34 319.54 C76.31 335.6 76.3 351.67 76.31 367.73 C76.31 383.32 76.31 398.9 76.3 414.49 C76.3 415.44 76.3 416.4 76.3 417.39 C76.3 427.86 76.29 438.34 76.27 448.81 C76.27 450.19 76.27 450.19 76.27 451.6 C76.27 455.28 76.26 458.96 76.26 462.65 C76.24 473.42 76.24 484.2 76.25 494.98 C76.25 501.74 76.25 508.51 76.24 515.27 C76.24 519.17 76.24 523.07 76.25 526.98 C76.26 530.55 76.26 534.13 76.25 537.7 C76.24 539.6 76.25 541.5 76.26 543.4 C76.2 558.66 76.2 558.66 71.81 565.31 C67.41 569.51 64.18 571.76 58.06 572.44 C51.08 572.02 45.86 569.29 40.54 564.89 C35.1 558.23 35.59 551.08 35.66 542.87 C35.66 541.53 35.65 540.18 35.65 538.84 C35.65 535.17 35.67 531.49 35.68 527.81 C35.7 523.85 35.7 519.88 35.7 515.91 C35.71 509.03 35.72 502.16 35.74 495.29 C35.77 484.42 35.78 473.55 35.77 462.69 C35.77 458.97 35.77 455.25 35.77 451.53 C35.77 450.6 35.77 449.67 35.77 448.72 C35.77 438.15 35.78 427.57 35.79 417 C35.79 416.04 35.79 415.07 35.79 414.07 C35.8 398.41 35.84 382.74 35.87 367.07 C35.91 350.99 35.92 334.9 35.9 318.81 C35.89 308.89 35.9 298.97 35.95 289.04 C35.98 282.25 35.98 275.45 35.96 268.65 C35.95 264.73 35.95 260.81 35.99 256.89 C36.02 253.3 36.02 249.71 35.99 246.11 C35.98 244.2 36.01 242.29 36.04 240.38 C36.02 234.11 36.02 234.11 33.24 228.7 C31.24 226.92 29.26 225.43 27 224 C26.17 223.41 25.34 222.81 24.49 222.2 C23.41 221.45 23.41 221.45 22.31 220.69 C1.54 204.11 -8.47 174.23 -13 149 C-13.18 148.03 -13.36 147.06 -13.55 146.06 C-15.58 133.28 -15.33 120.41 -15.33 107.5 C-15.34 105.46 -15.34 103.41 -15.35 101.37 C-15.36 94.21 -15.37 87.06 -15.37 79.9 C-15.37 73.26 -15.39 66.62 -15.42 59.98 C-15.45 54.24 -15.46 48.51 -15.46 42.77 C-15.46 39.36 -15.46 35.95 -15.48 32.54 C-15.5 28.74 -15.5 24.94 -15.49 21.14 C-15.5 20.03 -15.51 18.91 -15.52 17.76 C-15.47 11.06 -14.61 6.69 -11 1 C-7.26 -1.46 -4.19 -1.48 0 0 Z " fill="#F9FBFB" transform="translate(571,410)"/>
<path d="M0 0 C5.01 6.48 6.15 11.82 6.13 19.94 C6.14 20.87 6.14 21.8 6.14 22.75 C6.15 25.9 6.15 29.04 6.15 32.19 C6.15 34.45 6.15 36.72 6.16 38.98 C6.17 45.23 6.17 51.48 6.17 57.73 C6.18 63.77 6.19 69.81 6.19 75.85 C6.22 92.03 6.23 108.22 6.23 124.41 C6.24 132.06 6.24 139.72 6.25 147.37 C6.27 173.57 6.28 199.77 6.29 225.97 C6.29 227.61 6.29 229.26 6.29 230.9 C6.29 231.72 6.29 232.53 6.29 233.37 C6.29 237.51 6.29 241.64 6.3 245.77 C6.3 247 6.3 247 6.3 248.26 C6.3 274.86 6.33 301.46 6.36 328.06 C6.39 356.17 6.41 384.29 6.42 412.4 C6.42 415.49 6.42 418.57 6.42 421.66 C6.42 422.8 6.42 422.8 6.42 423.96 C6.42 436.19 6.44 448.43 6.46 460.66 C6.48 472.96 6.48 485.25 6.47 497.54 C6.47 504.21 6.47 510.87 6.49 517.53 C6.51 523.63 6.51 529.72 6.49 535.82 C6.49 538.03 6.49 540.23 6.51 542.44 C6.52 545.44 6.51 548.44 6.49 551.43 C6.51 552.73 6.51 552.73 6.53 554.04 C6.45 560.74 4.75 566.22 -0.04 571.06 C-0.7 571.51 -1.37 571.97 -2.06 572.44 C-2.73 572.91 -3.41 573.38 -4.1 573.87 C-8.55 576.51 -12.98 576.66 -18 576 C-24.58 573.91 -28.8 571.01 -32.16 564.96 C-33.83 561.06 -34.12 557.62 -34.11 553.39 C-34.11 551.66 -34.11 551.66 -34.11 549.9 C-34.11 548 -34.11 548 -34.1 546.07 C-34.1 544.71 -34.09 543.36 -34.09 542 C-34.09 539.05 -34.08 536.1 -34.08 533.15 C-34.06 528.35 -34.05 523.54 -34.05 518.74 C-34.04 513.57 -34.03 508.4 -34.03 503.23 C-34 490.42 -34 477.6 -34 464.78 C-34 463.86 -34 462.93 -34 461.98 C-34 454.35 -34 446.71 -34 439.08 C-34.01 432.21 -34.01 425.34 -34.01 418.46 C-34.01 417.48 -34.01 416.5 -34.01 415.49 C-34.01 399.61 -33.98 383.72 -33.94 367.83 C-33.9 351.53 -33.9 335.22 -33.92 318.91 C-33.94 308.85 -33.93 298.79 -33.88 288.73 C-33.85 281.84 -33.85 274.95 -33.88 268.05 C-33.9 264.07 -33.9 260.1 -33.86 256.12 C-33.83 252.48 -33.84 248.84 -33.88 245.19 C-33.89 243.25 -33.85 241.31 -33.82 239.37 C-33.8 233.07 -33.8 233.07 -36.97 227.93 C-39.26 226.39 -41.51 225.18 -44 224 C-62.81 211.07 -75.01 193.96 -81.18 171.84 C-81.93 169.05 -81.93 169.05 -82.97 166.65 C-84.71 162.17 -85.56 157.5 -86.56 152.81 C-86.78 151.82 -87 150.83 -87.23 149.81 C-95.18 113.19 -90.52 71.56 -74 38 C-73.53 37.02 -73.06 36.04 -72.57 35.03 C-64.15 18.52 -51.01 3.34 -33.12 -2.94 C-22.19 -6.05 -9.8 -6.53 0 0 Z " fill="#FAFCFC" transform="translate(805,303)"/>
<path d="M0 0 C0.99 0 1.98 0 3 0 C2.67 106.26 2.34 212.52 2 322 C1.67 322 1.34 322 1 322 C0.67 215.74 0.34 109.48 0 0 Z " fill="#000100" transform="translate(647,640)"/>
<path d="M0 0 C1.76 3.05 2.25 5.23 2.24 8.73 C2.24 9.68 2.25 10.63 2.25 11.61 C2.24 12.64 2.23 13.67 2.23 14.74 C2.23 15.83 2.23 16.92 2.23 18.05 C2.23 21.66 2.21 25.28 2.2 28.89 C2.19 31.4 2.19 33.9 2.19 36.41 C2.18 42.33 2.16 48.25 2.14 54.17 C2.12 61.57 2.11 68.98 2.1 76.38 C2.08 89.59 2.04 102.79 2 116 C1.01 116.5 1.01 116.5 0 117 C-0.95 114.14 -1.13 112.37 -1.13 109.4 C-1.13 107.99 -1.13 107.99 -1.14 106.54 C-1.13 105.51 -1.13 104.47 -1.13 103.41 C-1.13 102.32 -1.13 101.23 -1.13 100.11 C-1.14 96.5 -1.14 92.89 -1.13 89.28 C-1.13 86.78 -1.13 84.27 -1.14 81.77 C-1.14 76.52 -1.14 71.28 -1.13 66.03 C-1.12 59.96 -1.13 53.89 -1.13 47.82 C-1.14 41.99 -1.14 36.15 -1.13 30.32 C-1.13 27.83 -1.13 25.35 -1.14 22.86 C-1.14 19.39 -1.13 15.93 -1.13 12.46 C-1.13 11.43 -1.13 10.39 -1.14 9.32 C-1.13 8.38 -1.13 7.44 -1.13 6.47 C-1.13 5.65 -1.13 4.83 -1.13 3.99 C-1 2 -1 2 0 0 Z " fill="#0E0E0B" transform="translate(658,419)"/>
<path d="M0 0 C1.85 0.05 3.71 0.1 5.56 0.14 C10.04 0.26 14.52 0.38 19 0.5 C19 0.83 19 1.16 19 1.5 C10.43 2.72 1.89 2.65 -6.75 2.63 C-8.37 2.63 -10 2.63 -11.62 2.64 C-15.02 2.64 -18.41 2.64 -21.8 2.63 C-26.13 2.62 -30.45 2.63 -34.78 2.63 C-38.13 2.64 -41.48 2.64 -44.84 2.63 C-46.43 2.63 -48.02 2.63 -49.62 2.64 C-57.47 2.65 -65.21 2.61 -73 1.5 C-73 1.17 -73 0.84 -73 0.5 C-68.17 0.35 -63.33 0.21 -58.5 0.07 C-56.86 0.03 -55.22 -0.02 -53.59 -0.07 C-35.7 -0.61 -17.89 -0.48 0 0 Z " fill="#000100" transform="translate(667,1198.5)"/>
<path d="M0 0 C0.33 0 0.66 0 1 0 C1 28.71 1 57.42 1 87 C0.67 87 0.34 87 0 87 C0 58.29 0 29.58 0 0 Z " fill="#000100" transform="translate(1202,596)"/>
<path d="M0 0 C0.92 -0 1.84 -0.01 2.79 -0.01 C4.22 0 4.22 0 5.69 0.02 C7.12 0 7.12 0 8.58 -0.01 C9.51 -0.01 10.43 -0 11.38 0 C12.21 0 13.05 0 13.92 0.01 C16.44 0.29 18.08 1 20.25 2.27 C17.85 3.47 16.32 3.39 13.64 3.4 C12.72 3.4 11.8 3.4 10.86 3.4 C9.41 3.4 9.41 3.4 7.94 3.39 C6.52 3.4 6.52 3.4 5.06 3.4 C4.14 3.4 3.22 3.4 2.27 3.4 C1 3.4 1 3.4 -0.28 3.4 C-2.85 3.26 -5.24 2.83 -7.75 2.27 C-4.55 0.13 -3.68 0.01 0 0 Z " fill="#000100" transform="translate(643.74609375,1106.734375)"/>
<path d="M0 0 C0.99 0.33 1.98 0.66 3 1 C-1.12 5.92 -5.4 10.53 -10 15 C-10.66 14.34 -11.32 13.68 -12 13 C-11.22 12.23 -10.44 11.46 -9.63 10.66 C-8.61 9.65 -7.58 8.64 -6.56 7.62 C-6.05 7.12 -5.53 6.61 -5 6.09 C-2.14 3.31 -2.14 3.31 0 0 Z " fill="#32312B" transform="translate(240,242)"/>
<path d="M0 0 C0.99 0.33 1.98 0.66 3 1 C-1.29 5.29 -5.58 9.58 -10 14 C-10.66 13.34 -11.32 12.68 -12 12 C-8.04 8.04 -4.08 4.08 0 0 Z " fill="#35332D" transform="translate(255,228)"/>
<path d="M0 0 C0.99 0.33 1.98 0.66 3 1 C-0.3 4.3 -3.6 7.6 -7 11 C-7.33 10.01 -7.66 9.02 -8 8 C-5.36 5.36 -2.72 2.72 0 0 Z " fill="#33322C" transform="translate(224,259)"/>
<path d="M0 0 C0.33 0 0.66 0 1 0 C1.03 1.73 1.05 3.46 1.06 5.19 C1.07 6.15 1.09 7.11 1.1 8.11 C1 10.86 0.62 13.32 0 16 C-0.33 16 -0.66 16 -1 16 C-1.1 10.55 -1.13 5.36 0 0 Z " fill="#000100" transform="translate(1200,693)"/>
<path d="M0 0 C2 2 2 2 2.2 4.38 C2.17 5.29 2.15 6.19 2.12 7.12 C2.11 8.04 2.09 8.95 2.07 9.88 C2.04 10.93 2.04 10.93 2 12 C0 10 0 10 -0.2 7.62 C-0.17 6.71 -0.15 5.81 -0.12 4.88 C-0.11 3.96 -0.09 3.05 -0.07 2.12 C-0.05 1.42 -0.02 0.72 0 0 Z " fill="#000100" transform="translate(1199,573)"/>
<path d="M0 0 C0.8 0.02 1.6 0.04 2.42 0.05 C3.03 0.08 3.63 0.1 4.25 0.12 C1.19 1.91 -0.97 2.35 -4.5 2.25 C-5.3 2.23 -6.1 2.21 -6.92 2.2 C-7.53 2.17 -8.13 2.15 -8.75 2.12 C-5.69 0.34 -3.53 -0.1 0 0 Z " fill="#000100" transform="translate(723.75,1193.875)"/>
<path d="M0 0 C2 3.99 2.2 5.7 2 10 C1.34 9.67 0.68 9.34 0 9 C0 6.03 0 3.06 0 0 Z " fill="#000100" transform="translate(1194,537)"/>
<path d="M0 0 C4.29 0.33 8.58 0.66 13 1 C13 1.33 13 1.66 13 2 C11.58 2.05 10.17 2.09 8.75 2.12 C7.96 2.15 7.17 2.17 6.36 2.2 C4 2 4 2 0 0 Z " fill="#000100" transform="translate(552,1194)"/>
<path d="M0 0 C2.15 3.23 2.2 4.28 2 8 C0 6 0 6 -0.12 2.88 C-0.08 1.93 -0.04 0.98 0 0 Z " fill="#000100" transform="translate(1189,513)"/>
<path d="M0 0 C2.15 3.23 2.2 4.28 2 8 C0 6 0 6 -0.12 2.88 C-0.08 1.93 -0.04 0.98 0 0 Z " fill="#000100" transform="translate(1184,493)"/>
<path d="M0 0 C0.33 0 0.66 0 1 0 C0.67 2.64 0.34 5.28 0 8 C-0.33 8 -0.66 8 -1 8 C-0.67 5.36 -0.34 2.72 0 0 Z " fill="#000100" transform="translate(1195,733)"/>
<path d="M0 0 C2.97 0 5.94 0 9 0 C9 0.33 9 0.66 9 1 C6.03 1 3.06 1 0 1 C0 0.67 0 0.34 0 0 Z " fill="#000100" transform="translate(539,1192)"/>
<path d="M0 0 C-3 2 -3 2 -5.19 1.62 C-5.79 1.42 -6.38 1.21 -7 1 C-4.54 -0.23 -2.72 -0.07 0 0 Z " fill="#000100" transform="translate(777,1184)"/>
<path d="M0 0 C0.33 0 0.66 0 1 0 C1 2.97 1 5.94 1 9 C0.67 9 0.34 9 0 9 C0 6.03 0 3.06 0 0 Z " fill="#000100" transform="translate(1197,553)"/>
<path d="M0 0 C2.64 0 5.28 0 8 0 C8 0.33 8 0.66 8 1 C5.36 1 2.72 1 0 1 C0 0.67 0 0.34 0 0 Z " fill="#000100" transform="translate(733,1192)"/>
<path d="M0 0 C0.6 0.21 1.2 0.41 1.81 0.62 C-0.5 0.95 -2.81 1.29 -5.19 1.62 C-2.19 -0.38 -2.19 -0.38 0 0 Z " fill="#000100" transform="translate(753.1875,1189.375)"/>
<path d="M0 0 C0.62 1.81 0.62 1.81 1 4 C0.34 4.99 -0.32 5.98 -1 7 C-0.67 4.69 -0.34 2.38 0 0 Z " fill="#000100" transform="translate(1190,758)"/>
<path d="M0 0 C0.33 0 0.66 0 1 0 C1 2.31 1 4.62 1 7 C0.67 7 0.34 7 0 7 C0 4.69 0 2.38 0 0 Z " fill="#000100" transform="translate(1192,525)"/>
<path d="M0 0 C1.65 0 3.3 0 5 0 C5 0.33 5 0.66 5 1 C3.35 1 1.7 1 0 1 C0 0.67 0 0.34 0 0 Z " fill="#000100" transform="translate(703,1197)"/>
<path d="M0 0 C1.98 0.99 1.98 0.99 4 2 C2.68 1.67 1.36 1.34 0 1 C0 0.67 0 0.34 0 0 Z " fill="#000100" transform="translate(486,1179)"/>
<path d="M0 0 C1.65 0 3.3 0 5 0 C5 0.33 5 0.66 5 1 C3.35 1 1.7 1 0 1 C0 0.67 0 0.34 0 0 Z " fill="#000100" transform="translate(798,1177)"/>
<path d="M0 0 C1.65 0 3.3 0 5 0 C5 0.33 5 0.66 5 1 C3.35 1 1.7 1 0 1 C0 0.67 0 0.34 0 0 Z " fill="#000100" transform="translate(477,1177)"/>
<path d="M0 0 C0.33 0 0.66 0 1 0 C1 1.65 1 3.3 1 5 C0.67 5 0.34 5 0 5 C0 3.35 0 1.7 0 0 Z " fill="#000100" transform="translate(1182,788)"/>
<path d="M0 0 C4 1 4 1 4 1 Z " fill="#000100" transform="translate(528,1190)"/>
<path d="M0 0 C1 4 1 4 1 4 Z " fill="#000100" transform="translate(1172,821)"/>
<path d="M0 0 C1 4 1 4 1 4 Z " fill="#000100" transform="translate(1177,806)"/>
<path d="M0 0 C1 4 1 4 1 4 Z " fill="#000100" transform="translate(1177,468)"/>
<path d="M0 0 C0 3 0 3 0 3 Z " fill="#000100" transform="translate(1150,400)"/>
<path d="M0 0 C3 1 3 1 3 1 Z " fill="#000100" transform="translate(525,1189)"/>
<path d="M0 0 C3 1 3 1 3 1 Z " fill="#000100" transform="translate(816,1172)"/>
<path d="M0 0 C3 1 3 1 3 1 Z " fill="#000100" transform="translate(843,1162)"/>
<path d="M0 0 C3 1 3 1 3 1 Z " fill="#000100" transform="translate(434,1162)"/>
<path d="M0 0 C3 1 3 1 3 1 Z " fill="#000100" transform="translate(878,1147)"/>
<path d="M0 0 C3 1 3 1 3 1 Z " fill="#000100" transform="translate(399,1147)"/>
<path d="M0 0 C3 1 3 1 3 1 Z " fill="#000100" transform="translate(888,1142)"/>
<path d="M0 0 C3 1 3 1 3 1 Z " fill="#000100" transform="translate(389,1142)"/>
<path d="M0 0 C3 1 3 1 3 1 Z " fill="#000100" transform="translate(898,1137)"/>
<path d="M0 0 C3 1 3 1 3 1 Z " fill="#000100" transform="translate(379,1137)"/>
<path d="M0 0 C0.66 0.66 1.32 1.32 2 2 C1.34 2 0.68 2 0 2 C0 1.34 0 0.68 0 0 Z " fill="#000100" transform="translate(341,1114)"/>
<path d="M0 0 C0.66 0 1.32 0 2 0 C1.67 0.66 1.34 1.32 1 2 C0.67 1.34 0.34 0.68 0 0 Z " fill="#181712" transform="translate(996,1071)"/>
<path d="" fill="#000100" transform="translate(0,0)"/>
<path d="" fill="#000100" transform="translate(0,0)"/>
<path d="M0 0 C0.66 0 1.32 0 2 0 C1.67 0.66 1.34 1.32 1 2 C0.67 1.34 0.34 0.68 0 0 Z " fill="#000100" transform="translate(1154,411)"/>
<path d="M0 0 C0.66 0 1.32 0 2 0 C1.67 0.66 1.34 1.32 1 2 C0.67 1.34 0.34 0.68 0 0 Z " fill="#000100" transform="translate(1134,371)"/>
<path d="M0 0 C2 1 2 1 2 1 Z " fill="#000100" transform="translate(808,1175)"/>
<path d="M0 0 C2 1 2 1 2 1 Z " fill="#000100" transform="translate(470,1175)"/>
<path d="M0 0 C2 1 2 1 2 1 Z " fill="#000100" transform="translate(810,1174)"/>
<path d="M0 0 C2 1 2 1 2 1 Z " fill="#000100" transform="translate(468,1174)"/>
<path d="M0 0 C2 1 2 1 2 1 Z " fill="#000100" transform="translate(823,1170)"/>
<path d="M0 0 C2 1 2 1 2 1 Z " fill="#000100" transform="translate(455,1170)"/>
<path d="M0 0 C2 1 2 1 2 1 Z " fill="#000100" transform="translate(825,1169)"/>
<path d="M0 0 C2 1 2 1 2 1 Z " fill="#000100" transform="translate(453,1169)"/>
<path d="M0 0 C2 1 2 1 2 1 Z " fill="#000100" transform="translate(831,1167)"/>
<path d="M0 0 C2 1 2 1 2 1 Z " fill="#54544F" transform="translate(852,1158)"/>
<path d="M0 0 C2 1 2 1 2 1 Z " fill="#54544F" transform="translate(426,1158)"/>
<path d="M0 0 C2 1 2 1 2 1 Z " fill="#000100" transform="translate(856,1157)"/>
<path d="M0 0 C2 1 2 1 2 1 Z " fill="#000100" transform="translate(868,1152)"/>
<path d="M0 0 C2 1 2 1 2 1 Z " fill="#000100" transform="translate(410,1152)"/>
<path d="M0 0 C2 1 2 1 2 1 Z " fill="#000100" transform="translate(883,1145)"/>
<path d="M0 0 C2 1 2 1 2 1 Z " fill="#000100" transform="translate(395,1145)"/>
<path d="M0 0 C2 1 2 1 2 1 Z " fill="#000100" transform="translate(893,1140)"/>
<path d="M0 0 C2 1 2 1 2 1 Z " fill="#000100" transform="translate(385,1140)"/>
<path d="M0 0 C2 1 2 1 2 1 Z " fill="#000100" transform="translate(908,1132)"/>
<path d="M0 0 C2 1 2 1 2 1 Z " fill="#000100" transform="translate(370,1132)"/>
<path d="M0 0 C2 1 2 1 2 1 Z " fill="#000100" transform="translate(926,1122)"/>
<path d="M0 0 C2 1 2 1 2 1 Z " fill="#000100" transform="translate(352,1122)"/>
<path d="M0 0 C2 1 2 1 2 1 Z " fill="#000100" transform="translate(945,1110)"/>
<path d="M0 0 C2 1 2 1 2 1 Z " fill="#000100" transform="translate(333,1110)"/>
<path d="M0 0 C2 1 2 1 2 1 Z " fill="#000100" transform="translate(960,1100)"/>
<path d="M0 0 C2 1 2 1 2 1 Z " fill="#000100" transform="translate(318,1100)"/>
<path d="" fill="#000100" transform="translate(0,0)"/>
<path d="" fill="#000100" transform="translate(0,0)"/>
<path d="" fill="#000100" transform="translate(0,0)"/>
<path d="" fill="#000100" transform="translate(0,0)"/>
<path d="" fill="#000100" transform="translate(0,0)"/>
<path d="" fill="#000100" transform="translate(0,0)"/>
<path d="" fill="#000100" transform="translate(0,0)"/>
<path d="" fill="#54544F" transform="translate(0,0)"/>
<path d="" fill="#54544F" transform="translate(0,0)"/>
<path d="" fill="#000100" transform="translate(0,0)"/>
<path d="" fill="#000100" transform="translate(0,0)"/>
<path d="" fill="#000100" transform="translate(0,0)"/>
<path d="" fill="#000100" transform="translate(0,0)"/>
<path d="" fill="#000100" transform="translate(0,0)"/>
<path d="" fill="#000100" transform="translate(0,0)"/>
<path d="" fill="#000100" transform="translate(0,0)"/>
<path d="" fill="#000100" transform="translate(0,0)"/>
<path d="" fill="#000100" transform="translate(0,0)"/>
<path d="" fill="#000100" transform="translate(0,0)"/>
<path d="" fill="#000100" transform="translate(0,0)"/>
<path d="" fill="#000100" transform="translate(0,0)"/>
<path d="" fill="#000100" transform="translate(0,0)"/>
<path d="" fill="#000100" transform="translate(0,0)"/>
<path d="" fill="#000100" transform="translate(0,0)"/>
<path d="" fill="#000100" transform="translate(0,0)"/>
<path d="" fill="#54544F" transform="translate(0,0)"/>
<path d="" fill="#54544F" transform="translate(0,0)"/>
<path d="" fill="#54544F" transform="translate(0,0)"/>
<path d="" fill="#54544F" transform="translate(0,0)"/>
<path d="" fill="#54544F" transform="translate(0,0)"/>
<path d="" fill="#54544F" transform="translate(0,0)"/>
<path d="" fill="#54544F" transform="translate(0,0)"/>
<path d="" fill="#54544F" transform="translate(0,0)"/>
<path d="" fill="#000100" transform="translate(0,0)"/>
<path d="" fill="#54544F" transform="translate(0,0)"/>
<path d="" fill="#000100" transform="translate(0,0)"/>
<path d="" fill="#54544F" transform="translate(0,0)"/>
<path d="" fill="#54544F" transform="translate(0,0)"/>
<path d="" fill="#A1A09B" transform="translate(0,0)"/>
<path d="" fill="#000100" transform="translate(0,0)"/>
<path d="" fill="#54544F" transform="translate(0,0)"/>
<path d="" fill="#54544F" transform="translate(0,0)"/>
<path d="" fill="#000100" transform="translate(0,0)"/>
<path d="" fill="#54544F" transform="translate(0,0)"/>
<path d="" fill="#A1A09B" transform="translate(0,0)"/>
<path d="" fill="#54544F" transform="translate(0,0)"/>
<path d="" fill="#54544F" transform="translate(0,0)"/>
<path d="" fill="#000100" transform="translate(0,0)"/>
<path d="" fill="#54544F" transform="translate(0,0)"/>
<path d="" fill="#A1A09B" transform="translate(0,0)"/>
<path d="" fill="#000100" transform="translate(0,0)"/>
<path d="" fill="#54544F" transform="translate(0,0)"/>
<path d="" fill="#54544F" transform="translate(0,0)"/>
<path d="" fill="#000100" transform="translate(0,0)"/>
<path d="" fill="#54544F" transform="translate(0,0)"/>
<path d="" fill="#A1A09B" transform="translate(0,0)"/>
<path d="" fill="#000100" transform="translate(0,0)"/>
<path d="" fill="#000100" transform="translate(0,0)"/>
<path d="" fill="#54544F" transform="translate(0,0)"/>
<path d="" fill="#54544F" transform="translate(0,0)"/>
<path d="" fill="#000100" transform="translate(0,0)"/>
<path d="" fill="#54544F" transform="translate(0,0)"/>
<path d="" fill="#A1A09B" transform="translate(0,0)"/>
<path d="" fill="#000100" transform="translate(0,0)"/>
<path d="" fill="#54544F" transform="translate(0,0)"/>
<path d="" fill="#54544F" transform="translate(0,0)"/>
<path d="" fill="#000100" transform="translate(0,0)"/>
<path d="" fill="#54544F" transform="translate(0,0)"/>
<path d="" fill="#54544F" transform="translate(0,0)"/>
<path d="" fill="#000100" transform="translate(0,0)"/>
<path d="" fill="#000100" transform="translate(0,0)"/>
<path d="" fill="#54544F" transform="translate(0,0)"/>
<path d="" fill="#54544F" transform="translate(0,0)"/>
<path d="" fill="#000100" transform="translate(0,0)"/>
<path d="" fill="#54544F" transform="translate(0,0)"/>
<path d="" fill="#000100" transform="translate(0,0)"/>
<path d="" fill="#54544F" transform="translate(0,0)"/>
<path d="" fill="#54544F" transform="translate(0,0)"/>
<path d="" fill="#54544F" transform="translate(0,0)"/>
<path d="" fill="#000100" transform="translate(0,0)"/>
<path d="" fill="#54544F" transform="translate(0,0)"/>
<path d="" fill="#54544F" transform="translate(0,0)"/>
<path d="" fill="#54544F" transform="translate(0,0)"/>
<path d="" fill="#000100" transform="translate(0,0)"/>
<path d="" fill="#000100" transform="translate(0,0)"/>
<path d="" fill="#54544F" transform="translate(0,0)"/>
<path d="" fill="#000100" transform="translate(0,0)"/>
<path d="" fill="#54544F" transform="translate(0,0)"/>
<path d="" fill="#54544F" transform="translate(0,0)"/>
<path d="" fill="#000100" transform="translate(0,0)"/>
<path d="" fill="#000100" transform="translate(0,0)"/>
<path d="" fill="#000100" transform="translate(0,0)"/>
<path d="" fill="#000100" transform="translate(0,0)"/>
<path d="" fill="#24221B" transform="translate(0,0)"/>
<path d="" fill="#54544F" transform="translate(0,0)"/>
<path d="" fill="#000100" transform="translate(0,0)"/>
<path d="" fill="#54544F" transform="translate(0,0)"/>
<path d="" fill="#54544F" transform="translate(0,0)"/>
<path d="" fill="#000100" transform="translate(0,0)"/>
<path d="" fill="#000100" transform="translate(0,0)"/>
<path d="" fill="#000100" transform="translate(0,0)"/>
<path d="" fill="#000100" transform="translate(0,0)"/>
<path d="" fill="#000100" transform="translate(0,0)"/>
<path d="" fill="#000100" transform="translate(0,0)"/>
<path d="" fill="#000100" transform="translate(0,0)"/>
<path d="" fill="#000100" transform="translate(0,0)"/>
<path d="" fill="#000100" transform="translate(0,0)"/>
<path d="" fill="#000100" transform="translate(0,0)"/>
<path d="" fill="#000100" transform="translate(0,0)"/>
<path d="" fill="#000100" transform="translate(0,0)"/>
<path d="" fill="#000100" transform="translate(0,0)"/>
<path d="" fill="#000100" transform="translate(0,0)"/>
<path d="" fill="#000100" transform="translate(0,0)"/>
<path d="" fill="#000100" transform="translate(0,0)"/>
<path d="" fill="#000100" transform="translate(0,0)"/>
<path d="" fill="#000100" transform="translate(0,0)"/>
<path d="" fill="#000100" transform="translate(0,0)"/>
<path d="" fill="#000100" transform="translate(0,0)"/>
<path d="" fill="#000100" transform="translate(0,0)"/>
<path d="" fill="#000100" transform="translate(0,0)"/>
<path d="" fill="#000100" transform="translate(0,0)"/>
<path d="" fill="#000100" transform="translate(0,0)"/>
<path d="" fill="#000100" transform="translate(0,0)"/>
<path d="" fill="#000100" transform="translate(0,0)"/>
<path d="" fill="#000100" transform="translate(0,0)"/>
<path d="" fill="#54544F" transform="translate(0,0)"/>
<path d="" fill="#54544F" transform="translate(0,0)"/>
<path d="" fill="#000100" transform="translate(0,0)"/>
<path d="" fill="#54544F" transform="translate(0,0)"/>
<path d="" fill="#24221B" transform="translate(0,0)"/>
<path d="" fill="#54544F" transform="translate(0,0)"/>
<path d="" fill="#54544F" transform="translate(0,0)"/>
<path d="" fill="#54544F" transform="translate(0,0)"/>
<path d="" fill="#000100" transform="translate(0,0)"/>
<path d="" fill="#54544F" transform="translate(0,0)"/>
<path d="" fill="#000100" transform="translate(0,0)"/>
<path d="" fill="#54544F" transform="translate(0,0)"/>
<path d="" fill="#54544F" transform="translate(0,0)"/>
<path d="" fill="#54544F" transform="translate(0,0)"/>
<path d="" fill="#54544F" transform="translate(0,0)"/>
<path d="" fill="#000100" transform="translate(0,0)"/>
<path d="" fill="#54544F" transform="translate(0,0)"/>
<path d="" fill="#54544F" transform="translate(0,0)"/>
<path d="" fill="#000100" transform="translate(0,0)"/>
<path d="" fill="#54544F" transform="translate(0,0)"/>
<path d="" fill="#54544F" transform="translate(0,0)"/>
<path d="" fill="#000100" transform="translate(0,0)"/>
<path d="" fill="#54544F" transform="translate(0,0)"/>
<path d="" fill="#000100" transform="translate(0,0)"/>
<path d="" fill="#000100" transform="translate(0,0)"/>
<path d="" fill="#000100" transform="translate(0,0)"/>
<path d="" fill="#000100" transform="translate(0,0)"/>
<path d="" fill="#000100" transform="translate(0,0)"/>
<path d="" fill="#54544F" transform="translate(0,0)"/>
<path d="" fill="#000100" transform="translate(0,0)"/>
<path d="" fill="#54544F" transform="translate(0,0)"/>
<path d="" fill="#54544F" transform="translate(0,0)"/>
<path d="" fill="#54544F" transform="translate(0,0)"/>
<path d="" fill="#000100" transform="translate(0,0)"/>
<path d="" fill="#54544F" transform="translate(0,0)"/>
<path d="" fill="#000100" transform="translate(0,0)"/>
<path d="" fill="#54544F" transform="translate(0,0)"/>
<path d="" fill="#54544F" transform="translate(0,0)"/>
<path d="" fill="#54544F" transform="translate(0,0)"/>
<path d="" fill="#000100" transform="translate(0,0)"/>
<path d="" fill="#54544F" transform="translate(0,0)"/>
<path d="" fill="#54544F" transform="translate(0,0)"/>
<path d="" fill="#54544F" transform="translate(0,0)"/>
<path d="" fill="#54544F" transform="translate(0,0)"/>
<path d="" fill="#000100" transform="translate(0,0)"/>
<path d="" fill="#000100" transform="translate(0,0)"/>
<path d="" fill="#54544F" transform="translate(0,0)"/>
<path d="" fill="#54544F" transform="translate(0,0)"/>
<path d="" fill="#000100" transform="translate(0,0)"/>
<path d="" fill="#54544F" transform="translate(0,0)"/>
<path d="" fill="#000100" transform="translate(0,0)"/>
<path d="" fill="#000100" transform="translate(0,0)"/>
<path d="" fill="#000100" transform="translate(0,0)"/>
<path d="" fill="#000100" transform="translate(0,0)"/>
<path d="" fill="#000100" transform="translate(0,0)"/>
<path d="" fill="#000100" transform="translate(0,0)"/>
<path d="" fill="#54544F" transform="translate(0,0)"/>
<path d="" fill="#54544F" transform="translate(0,0)"/>
<path d="" fill="#000100" transform="translate(0,0)"/>
<path d="" fill="#000100" transform="translate(0,0)"/>
<path d="" fill="#000100" transform="translate(0,0)"/>
<path d="" fill="#000100" transform="translate(0,0)"/>
<path d="" fill="#000100" transform="translate(0,0)"/>
<path d="" fill="#000100" transform="translate(0,0)"/>
<path d="" fill="#000100" transform="translate(0,0)"/>
<path d="" fill="#000100" transform="translate(0,0)"/>
</svg>
